<mxfile host="65bd71144e">
    <diagram id="YJA3ccv7uTv8HLyaoleA" name="Страница 1">
        <mxGraphModel dx="1644" dy="1508" grid="1" gridSize="10" guides="1" tooltips="1" connect="1" arrows="1" fold="1" page="1" pageScale="1" pageWidth="827" pageHeight="1169" math="0" shadow="0">
            <root>
                <mxCell id="0"/>
                <mxCell id="1" parent="0"/>
                <mxCell id="2" value="start" style="rounded=1;whiteSpace=wrap;html=1;" parent="1" vertex="1">
                    <mxGeometry x="240" y="10" width="100" height="30" as="geometry"/>
                </mxCell>
                <mxCell id="3" value="N&lt;br&gt;arr[ ]&lt;br&gt;arr_1[ ]&lt;br&gt;i = 0" style="shape=parallelogram;perimeter=parallelogramPerimeter;whiteSpace=wrap;html=1;fixedSize=1;" parent="1" vertex="1">
                    <mxGeometry x="230" y="60" width="120" height="70" as="geometry"/>
                </mxCell>
                <mxCell id="5" value="&lt;div&gt;Задача 2. Нарисовать блок-схему&lt;/div&gt;&lt;div&gt;Задание на «разворот» массива. Нужно перевернуть массив и&lt;/div&gt;&lt;div&gt;записать его в обратном порядке.&lt;/div&gt;" style="rounded=0;whiteSpace=wrap;html=1;" parent="1" vertex="1">
                    <mxGeometry x="-5" width="215" height="60" as="geometry"/>
                </mxCell>
                <mxCell id="7" value="&amp;nbsp; i &amp;lt; N" style="rhombus;whiteSpace=wrap;html=1;" parent="1" vertex="1">
                    <mxGeometry x="235" y="167.5" width="110" height="50" as="geometry"/>
                </mxCell>
                <mxCell id="8" value="" style="whiteSpace=wrap;html=1;aspect=fixed;" parent="1" vertex="1">
                    <mxGeometry x="370" y="10" width="30" height="30" as="geometry"/>
                </mxCell>
                <mxCell id="9" value="" style="whiteSpace=wrap;html=1;aspect=fixed;" parent="1" vertex="1">
                    <mxGeometry x="400" y="10" width="30" height="30" as="geometry"/>
                </mxCell>
                <mxCell id="10" value="" style="whiteSpace=wrap;html=1;aspect=fixed;" parent="1" vertex="1">
                    <mxGeometry x="430" y="10" width="30" height="30" as="geometry"/>
                </mxCell>
                <mxCell id="11" value="" style="whiteSpace=wrap;html=1;aspect=fixed;" parent="1" vertex="1">
                    <mxGeometry x="460" y="10" width="30" height="30" as="geometry"/>
                </mxCell>
                <mxCell id="13" value="" style="whiteSpace=wrap;html=1;aspect=fixed;" parent="1" vertex="1">
                    <mxGeometry x="490" y="10" width="30" height="30" as="geometry"/>
                </mxCell>
                <mxCell id="14" value="arr_1[(N - 1) - i ] =&amp;nbsp; arr[ i ]&lt;br&gt;i = i + 1" style="rounded=0;whiteSpace=wrap;html=1;align=left;" parent="1" vertex="1">
                    <mxGeometry x="42.5" y="240" width="177.5" height="70" as="geometry"/>
                </mxCell>
                <mxCell id="15" value="0 4&lt;br&gt;1 3&lt;br&gt;2 2" style="whiteSpace=wrap;html=1;aspect=fixed;" parent="1" vertex="1">
                    <mxGeometry x="420" y="70" width="60" height="60" as="geometry"/>
                </mxCell>
                <mxCell id="16" value="arr1[ ]" style="shape=document;whiteSpace=wrap;html=1;boundedLbl=1;" parent="1" vertex="1">
                    <mxGeometry x="400" y="230" width="100" height="55" as="geometry"/>
                </mxCell>
                <mxCell id="17" value="finish" style="rounded=1;whiteSpace=wrap;html=1;" parent="1" vertex="1">
                    <mxGeometry x="400" y="310" width="100" height="40" as="geometry"/>
                </mxCell>
                <mxCell id="18" value="" style="endArrow=classic;html=1;entryX=0.5;entryY=1;entryDx=0;entryDy=0;" parent="1" target="14" edge="1">
                    <mxGeometry width="50" height="50" relative="1" as="geometry">
                        <mxPoint x="290" y="220" as="sourcePoint"/>
                        <mxPoint x="350" y="170" as="targetPoint"/>
                        <Array as="points">
                            <mxPoint x="290" y="350"/>
                            <mxPoint x="131" y="350"/>
                        </Array>
                    </mxGeometry>
                </mxCell>
                <mxCell id="19" value="" style="endArrow=classic;html=1;exitX=0.5;exitY=1;exitDx=0;exitDy=0;entryX=0.5;entryY=0;entryDx=0;entryDy=0;" parent="1" source="3" target="7" edge="1">
                    <mxGeometry width="50" height="50" relative="1" as="geometry">
                        <mxPoint x="300" y="220" as="sourcePoint"/>
                        <mxPoint x="350" y="170" as="targetPoint"/>
                    </mxGeometry>
                </mxCell>
                <mxCell id="20" value="" style="endArrow=classic;html=1;exitX=0.5;exitY=0;exitDx=0;exitDy=0;" parent="1" source="14" edge="1">
                    <mxGeometry width="50" height="50" relative="1" as="geometry">
                        <mxPoint x="300" y="220" as="sourcePoint"/>
                        <mxPoint x="290" y="150" as="targetPoint"/>
                        <Array as="points">
                            <mxPoint x="131" y="150"/>
                        </Array>
                    </mxGeometry>
                </mxCell>
                <mxCell id="21" value="" style="endArrow=classic;html=1;exitX=1;exitY=0.5;exitDx=0;exitDy=0;entryX=0.5;entryY=0;entryDx=0;entryDy=0;" parent="1" source="7" target="16" edge="1">
                    <mxGeometry width="50" height="50" relative="1" as="geometry">
                        <mxPoint x="300" y="220" as="sourcePoint"/>
                        <mxPoint x="350" y="170" as="targetPoint"/>
                        <Array as="points">
                            <mxPoint x="450" y="193"/>
                        </Array>
                    </mxGeometry>
                </mxCell>
                <mxCell id="22" value="" style="endArrow=classic;html=1;exitX=0.5;exitY=0.909;exitDx=0;exitDy=0;exitPerimeter=0;entryX=0.5;entryY=0;entryDx=0;entryDy=0;" parent="1" source="16" target="17" edge="1">
                    <mxGeometry width="50" height="50" relative="1" as="geometry">
                        <mxPoint x="300" y="220" as="sourcePoint"/>
                        <mxPoint x="350" y="170" as="targetPoint"/>
                    </mxGeometry>
                </mxCell>
                <mxCell id="23" value="да" style="text;html=1;strokeColor=none;fillColor=none;align=center;verticalAlign=middle;whiteSpace=wrap;rounded=0;" parent="1" vertex="1">
                    <mxGeometry x="270" y="230" width="60" height="30" as="geometry"/>
                </mxCell>
                <mxCell id="26" value="N&lt;br&gt;arr[ ]&lt;br&gt;&lt;br&gt;i = 0" style="shape=parallelogram;perimeter=parallelogramPerimeter;whiteSpace=wrap;html=1;fixedSize=1;" parent="1" vertex="1">
                    <mxGeometry x="729" y="60" width="120" height="70" as="geometry"/>
                </mxCell>
                <mxCell id="27" value="&amp;nbsp; i &amp;lt; N/2" style="rhombus;whiteSpace=wrap;html=1;" parent="1" vertex="1">
                    <mxGeometry x="734" y="167.5" width="110" height="50" as="geometry"/>
                </mxCell>
                <mxCell id="29" value="arr1[ ]" style="shape=document;whiteSpace=wrap;html=1;boundedLbl=1;" parent="1" vertex="1">
                    <mxGeometry x="899" y="230" width="100" height="55" as="geometry"/>
                </mxCell>
                <mxCell id="30" value="finish" style="rounded=1;whiteSpace=wrap;html=1;" parent="1" vertex="1">
                    <mxGeometry x="899" y="310" width="100" height="40" as="geometry"/>
                </mxCell>
                <mxCell id="31" value="" style="endArrow=classic;html=1;entryX=0.5;entryY=1;entryDx=0;entryDy=0;" parent="1" edge="1">
                    <mxGeometry width="50" height="50" relative="1" as="geometry">
                        <mxPoint x="789" y="220" as="sourcePoint"/>
                        <mxPoint x="630.25" y="310" as="targetPoint"/>
                        <Array as="points">
                            <mxPoint x="789" y="350"/>
                            <mxPoint x="630" y="350"/>
                        </Array>
                    </mxGeometry>
                </mxCell>
                <mxCell id="32" value="" style="endArrow=classic;html=1;exitX=0.5;exitY=1;exitDx=0;exitDy=0;entryX=0.5;entryY=0;entryDx=0;entryDy=0;" parent="1" source="26" target="27" edge="1">
                    <mxGeometry width="50" height="50" relative="1" as="geometry">
                        <mxPoint x="799" y="220" as="sourcePoint"/>
                        <mxPoint x="849" y="170" as="targetPoint"/>
                    </mxGeometry>
                </mxCell>
                <mxCell id="33" value="" style="endArrow=classic;html=1;" parent="1" edge="1">
                    <mxGeometry width="50" height="50" relative="1" as="geometry">
                        <mxPoint x="630" y="190" as="sourcePoint"/>
                        <mxPoint x="789" y="150" as="targetPoint"/>
                        <Array as="points">
                            <mxPoint x="630" y="150"/>
                        </Array>
                    </mxGeometry>
                </mxCell>
                <mxCell id="34" value="" style="endArrow=classic;html=1;exitX=1;exitY=0.5;exitDx=0;exitDy=0;entryX=0.5;entryY=0;entryDx=0;entryDy=0;" parent="1" source="27" target="29" edge="1">
                    <mxGeometry width="50" height="50" relative="1" as="geometry">
                        <mxPoint x="799" y="220" as="sourcePoint"/>
                        <mxPoint x="849" y="170" as="targetPoint"/>
                        <Array as="points">
                            <mxPoint x="949" y="193"/>
                        </Array>
                    </mxGeometry>
                </mxCell>
                <mxCell id="35" value="" style="endArrow=classic;html=1;exitX=0.5;exitY=0.909;exitDx=0;exitDy=0;exitPerimeter=0;entryX=0.5;entryY=0;entryDx=0;entryDy=0;" parent="1" source="29" target="30" edge="1">
                    <mxGeometry width="50" height="50" relative="1" as="geometry">
                        <mxPoint x="799" y="220" as="sourcePoint"/>
                        <mxPoint x="849" y="170" as="targetPoint"/>
                    </mxGeometry>
                </mxCell>
                <mxCell id="36" value="да" style="text;html=1;strokeColor=none;fillColor=none;align=center;verticalAlign=middle;whiteSpace=wrap;rounded=0;" parent="1" vertex="1">
                    <mxGeometry x="769" y="230" width="60" height="30" as="geometry"/>
                </mxCell>
                <mxCell id="37" value="start" style="rounded=1;whiteSpace=wrap;html=1;" parent="1" vertex="1">
                    <mxGeometry x="739" y="10" width="100" height="30" as="geometry"/>
                </mxCell>
                <mxCell id="38" value="tmp = arr[(N - 1) - i ]&amp;nbsp;&lt;br&gt;&lt;br&gt;arr[(N - 1) - i ] = arr[ i ]&lt;br&gt;&lt;br&gt;arr[ i ] = tmp&amp;nbsp;&lt;br&gt;&amp;nbsp;&lt;br&gt;i = i + 1" style="rounded=0;whiteSpace=wrap;html=1;" parent="1" vertex="1">
                    <mxGeometry x="540" y="190" width="177.5" height="120" as="geometry"/>
                </mxCell>
                <mxCell id="39" value="" style="endArrow=classic;html=1;exitX=0.5;exitY=1;exitDx=0;exitDy=0;entryX=0.5;entryY=0;entryDx=0;entryDy=0;" parent="1" source="2" target="3" edge="1">
                    <mxGeometry width="50" height="50" relative="1" as="geometry">
                        <mxPoint x="490" y="170" as="sourcePoint"/>
                        <mxPoint x="540" y="120" as="targetPoint"/>
                    </mxGeometry>
                </mxCell>
                <mxCell id="40" value="" style="endArrow=classic;html=1;exitX=0.5;exitY=1;exitDx=0;exitDy=0;entryX=0.5;entryY=0;entryDx=0;entryDy=0;" parent="1" source="37" target="26" edge="1">
                    <mxGeometry width="50" height="50" relative="1" as="geometry">
                        <mxPoint x="490" y="170" as="sourcePoint"/>
                        <mxPoint x="540" y="120" as="targetPoint"/>
                    </mxGeometry>
                </mxCell>
                <mxCell id="41" value="а можно использовать два счетчика &lt;br&gt;1 - (ш - 1)&lt;br&gt;2 - (л + 1)&lt;br&gt;один считает от конца, а другой от начала" style="text;html=1;strokeColor=none;fillColor=none;align=center;verticalAlign=middle;whiteSpace=wrap;rounded=0;" parent="1" vertex="1">
                    <mxGeometry x="540" y="10" width="140" height="120" as="geometry"/>
                </mxCell>
                <mxCell id="42" value="arr_1[(N - 1)] =&amp;nbsp; arr[ i ]&lt;br&gt;N = N - 1&lt;br&gt;i = i + 1" style="rounded=0;whiteSpace=wrap;html=1;align=left;" parent="1" vertex="1">
                    <mxGeometry x="42.5" y="370" width="177.5" height="70" as="geometry"/>
                </mxCell>
                <mxCell id="44" style="edgeStyle=none;html=1;exitX=0.5;exitY=0;exitDx=0;exitDy=0;" parent="1" edge="1">
                    <mxGeometry relative="1" as="geometry">
                        <mxPoint x="-71" y="130" as="targetPoint"/>
                        <mxPoint x="-71.25" y="100" as="sourcePoint"/>
                    </mxGeometry>
                </mxCell>
                <mxCell id="45" value="N&lt;br&gt;arr[ ]&lt;br&gt;arr_2[ ]&lt;br&gt;i_2 = N - 1&lt;br&gt;i = 0" style="shape=parallelogram;perimeter=parallelogramPerimeter;whiteSpace=wrap;html=1;fixedSize=1;" vertex="1" parent="1">
                    <mxGeometry x="1160" y="70" width="260" height="120" as="geometry"/>
                </mxCell>
                <mxCell id="60" style="edgeStyle=none;html=1;exitX=0.5;exitY=1;exitDx=0;exitDy=0;" edge="1" parent="1" source="46">
                    <mxGeometry relative="1" as="geometry">
                        <mxPoint x="1289.3333333333335" y="370" as="targetPoint"/>
                    </mxGeometry>
                </mxCell>
                <mxCell id="46" value="&amp;nbsp; i &amp;lt; N" style="rhombus;whiteSpace=wrap;html=1;" vertex="1" parent="1">
                    <mxGeometry x="1212" y="250" width="156" height="120" as="geometry"/>
                </mxCell>
                <mxCell id="47" value="arr_2[ ]" style="shape=document;whiteSpace=wrap;html=1;boundedLbl=1;" vertex="1" parent="1">
                    <mxGeometry x="1460" y="350" width="100" height="55" as="geometry"/>
                </mxCell>
                <mxCell id="48" value="finish" style="rounded=1;whiteSpace=wrap;html=1;" vertex="1" parent="1">
                    <mxGeometry x="1460" y="450" width="100" height="40" as="geometry"/>
                </mxCell>
                <mxCell id="49" value="" style="endArrow=classic;html=1;entryX=0.5;entryY=1;entryDx=0;entryDy=0;" edge="1" parent="1" target="55">
                    <mxGeometry width="50" height="50" relative="1" as="geometry">
                        <mxPoint x="1289" y="370" as="sourcePoint"/>
                        <mxPoint x="1130.25" y="390" as="targetPoint"/>
                        <Array as="points">
                            <mxPoint x="1289" y="430"/>
                            <mxPoint x="1110" y="430"/>
                        </Array>
                    </mxGeometry>
                </mxCell>
                <mxCell id="50" value="" style="endArrow=classic;html=1;exitX=0.5;exitY=1;exitDx=0;exitDy=0;entryX=0.5;entryY=0;entryDx=0;entryDy=0;" edge="1" source="45" target="46" parent="1">
                    <mxGeometry width="50" height="50" relative="1" as="geometry">
                        <mxPoint x="1299" y="230" as="sourcePoint"/>
                        <mxPoint x="1349" y="180" as="targetPoint"/>
                    </mxGeometry>
                </mxCell>
                <mxCell id="51" value="" style="endArrow=classic;html=1;exitX=0.5;exitY=0;exitDx=0;exitDy=0;" edge="1" parent="1" source="55">
                    <mxGeometry width="50" height="50" relative="1" as="geometry">
                        <mxPoint x="1130" y="270" as="sourcePoint"/>
                        <mxPoint x="1289" y="230" as="targetPoint"/>
                        <Array as="points">
                            <mxPoint x="1109" y="230"/>
                        </Array>
                    </mxGeometry>
                </mxCell>
                <mxCell id="52" value="" style="endArrow=classic;html=1;exitX=1;exitY=0.5;exitDx=0;exitDy=0;entryX=0.5;entryY=0;entryDx=0;entryDy=0;" edge="1" source="46" target="47" parent="1">
                    <mxGeometry width="50" height="50" relative="1" as="geometry">
                        <mxPoint x="1299" y="300" as="sourcePoint"/>
                        <mxPoint x="1349" y="250" as="targetPoint"/>
                        <Array as="points">
                            <mxPoint x="1510" y="310"/>
                        </Array>
                    </mxGeometry>
                </mxCell>
                <mxCell id="53" value="" style="endArrow=classic;html=1;exitX=0.5;exitY=0.909;exitDx=0;exitDy=0;exitPerimeter=0;entryX=0.5;entryY=0;entryDx=0;entryDy=0;" edge="1" source="47" target="48" parent="1">
                    <mxGeometry width="50" height="50" relative="1" as="geometry">
                        <mxPoint x="1360" y="360" as="sourcePoint"/>
                        <mxPoint x="1410" y="310" as="targetPoint"/>
                    </mxGeometry>
                </mxCell>
                <mxCell id="55" value="&lt;span&gt;arr_2[ i&lt;/span&gt;_2&amp;nbsp;&lt;span&gt;] = arr[ i ]&lt;br&gt;&lt;br&gt;i_2 = i_2 - 1&lt;br&gt;&lt;br&gt;i = i + 1&lt;br&gt;&lt;/span&gt;" style="rounded=0;whiteSpace=wrap;html=1;" vertex="1" parent="1">
                    <mxGeometry x="1020" y="267.5" width="177.5" height="112.5" as="geometry"/>
                </mxCell>
                <mxCell id="56" value="" style="endArrow=classic;html=1;exitX=0.5;exitY=1;exitDx=0;exitDy=0;entryX=0.5;entryY=0;entryDx=0;entryDy=0;" edge="1" target="45" parent="1">
                    <mxGeometry width="50" height="50" relative="1" as="geometry">
                        <mxPoint x="1289" y="50" as="sourcePoint"/>
                        <mxPoint x="1040" y="130" as="targetPoint"/>
                    </mxGeometry>
                </mxCell>
                <mxCell id="57" value="start" style="rounded=1;whiteSpace=wrap;html=1;" vertex="1" parent="1">
                    <mxGeometry x="1239" y="20" width="100" height="30" as="geometry"/>
                </mxCell>
                <mxCell id="66" value="1" style="whiteSpace=wrap;html=1;aspect=fixed;" vertex="1" parent="1">
                    <mxGeometry x="1480" y="70" width="30" height="30" as="geometry"/>
                </mxCell>
                <mxCell id="68" value="3" style="whiteSpace=wrap;html=1;aspect=fixed;" vertex="1" parent="1">
                    <mxGeometry x="1540" y="70" width="30" height="30" as="geometry"/>
                </mxCell>
                <mxCell id="69" value="4" style="whiteSpace=wrap;html=1;aspect=fixed;" vertex="1" parent="1">
                    <mxGeometry x="1570" y="70" width="30" height="30" as="geometry"/>
                </mxCell>
                <mxCell id="70" value="5" style="whiteSpace=wrap;html=1;aspect=fixed;" vertex="1" parent="1">
                    <mxGeometry x="1600" y="70" width="30" height="30" as="geometry"/>
                </mxCell>
                <mxCell id="71" value="2" style="whiteSpace=wrap;html=1;aspect=fixed;" vertex="1" parent="1">
                    <mxGeometry x="1510" y="70" width="30" height="30" as="geometry"/>
                </mxCell>
                <mxCell id="82" value="1" style="whiteSpace=wrap;html=1;aspect=fixed;" vertex="1" parent="1">
                    <mxGeometry x="1480" y="177.5" width="30" height="30" as="geometry"/>
                </mxCell>
                <mxCell id="83" value="3" style="whiteSpace=wrap;html=1;aspect=fixed;" vertex="1" parent="1">
                    <mxGeometry x="1540" y="177.5" width="30" height="30" as="geometry"/>
                </mxCell>
                <mxCell id="84" value="4" style="whiteSpace=wrap;html=1;aspect=fixed;" vertex="1" parent="1">
                    <mxGeometry x="1570" y="177.5" width="30" height="30" as="geometry"/>
                </mxCell>
                <mxCell id="85" value="5" style="whiteSpace=wrap;html=1;aspect=fixed;" vertex="1" parent="1">
                    <mxGeometry x="1600" y="177.5" width="30" height="30" as="geometry"/>
                </mxCell>
                <mxCell id="86" value="2" style="whiteSpace=wrap;html=1;aspect=fixed;" vertex="1" parent="1">
                    <mxGeometry x="1510" y="177.5" width="30" height="30" as="geometry"/>
                </mxCell>
                <mxCell id="87" value="" style="endArrow=classic;html=1;exitX=0.5;exitY=1;exitDx=0;exitDy=0;entryX=0.5;entryY=0;entryDx=0;entryDy=0;" edge="1" parent="1" source="66" target="85">
                    <mxGeometry width="50" height="50" relative="1" as="geometry">
                        <mxPoint x="1320" y="240" as="sourcePoint"/>
                        <mxPoint x="1370" y="190" as="targetPoint"/>
                    </mxGeometry>
                </mxCell>
                <mxCell id="88" value="" style="endArrow=classic;html=1;exitX=0.5;exitY=1;exitDx=0;exitDy=0;entryX=0.25;entryY=0;entryDx=0;entryDy=0;" edge="1" parent="1" source="70" target="82">
                    <mxGeometry width="50" height="50" relative="1" as="geometry">
                        <mxPoint x="1320" y="240" as="sourcePoint"/>
                        <mxPoint x="1370" y="190" as="targetPoint"/>
                    </mxGeometry>
                </mxCell>
                <mxCell id="89" value="" style="endArrow=classic;html=1;exitX=0.5;exitY=1;exitDx=0;exitDy=0;entryX=0.5;entryY=0;entryDx=0;entryDy=0;" edge="1" parent="1" source="71" target="84">
                    <mxGeometry width="50" height="50" relative="1" as="geometry">
                        <mxPoint x="1320" y="240" as="sourcePoint"/>
                        <mxPoint x="1370" y="190" as="targetPoint"/>
                    </mxGeometry>
                </mxCell>
                <mxCell id="90" value="" style="endArrow=classic;html=1;exitX=0.5;exitY=1;exitDx=0;exitDy=0;entryX=0.5;entryY=0;entryDx=0;entryDy=0;" edge="1" parent="1" source="69" target="86">
                    <mxGeometry width="50" height="50" relative="1" as="geometry">
                        <mxPoint x="1320" y="240" as="sourcePoint"/>
                        <mxPoint x="1370" y="190" as="targetPoint"/>
                    </mxGeometry>
                </mxCell>
                <mxCell id="91" value="" style="endArrow=classic;html=1;exitX=0.5;exitY=1;exitDx=0;exitDy=0;" edge="1" parent="1" source="68" target="83">
                    <mxGeometry width="50" height="50" relative="1" as="geometry">
                        <mxPoint x="1320" y="240" as="sourcePoint"/>
                        <mxPoint x="1370" y="190" as="targetPoint"/>
                    </mxGeometry>
                </mxCell>
                <mxCell id="92" value="0" style="text;html=1;strokeColor=none;fillColor=none;align=center;verticalAlign=middle;whiteSpace=wrap;rounded=0;" vertex="1" parent="1">
                    <mxGeometry x="1465" y="40" width="60" height="30" as="geometry"/>
                </mxCell>
                <mxCell id="93" value="1" style="text;html=1;strokeColor=none;fillColor=none;align=center;verticalAlign=middle;whiteSpace=wrap;rounded=0;" vertex="1" parent="1">
                    <mxGeometry x="1495" y="40" width="60" height="30" as="geometry"/>
                </mxCell>
                <mxCell id="94" value="2" style="text;html=1;strokeColor=none;fillColor=none;align=center;verticalAlign=middle;whiteSpace=wrap;rounded=0;" vertex="1" parent="1">
                    <mxGeometry x="1525" y="40" width="60" height="30" as="geometry"/>
                </mxCell>
                <mxCell id="95" value="3" style="text;html=1;strokeColor=none;fillColor=none;align=center;verticalAlign=middle;whiteSpace=wrap;rounded=0;" vertex="1" parent="1">
                    <mxGeometry x="1555" y="40" width="60" height="30" as="geometry"/>
                </mxCell>
                <mxCell id="96" value="" style="rounded=0;whiteSpace=wrap;html=1;" vertex="1" parent="1">
                    <mxGeometry x="1780" y="250" width="130" height="52.5" as="geometry"/>
                </mxCell>
                <mxCell id="97" value="4" style="text;html=1;strokeColor=none;fillColor=none;align=center;verticalAlign=middle;whiteSpace=wrap;rounded=0;" vertex="1" parent="1">
                    <mxGeometry x="1592.5" y="40" width="45" height="30" as="geometry"/>
                </mxCell>
                <mxCell id="98" value="0" style="text;html=1;strokeColor=none;fillColor=none;align=center;verticalAlign=middle;whiteSpace=wrap;rounded=0;" vertex="1" parent="1">
                    <mxGeometry x="1465" y="207.5" width="60" height="30" as="geometry"/>
                </mxCell>
                <mxCell id="99" value="1" style="text;html=1;strokeColor=none;fillColor=none;align=center;verticalAlign=middle;whiteSpace=wrap;rounded=0;" vertex="1" parent="1">
                    <mxGeometry x="1495" y="207.5" width="60" height="30" as="geometry"/>
                </mxCell>
                <mxCell id="100" value="2" style="text;html=1;strokeColor=none;fillColor=none;align=center;verticalAlign=middle;whiteSpace=wrap;rounded=0;" vertex="1" parent="1">
                    <mxGeometry x="1525" y="207.5" width="60" height="30" as="geometry"/>
                </mxCell>
                <mxCell id="101" value="3" style="text;html=1;strokeColor=none;fillColor=none;align=center;verticalAlign=middle;whiteSpace=wrap;rounded=0;" vertex="1" parent="1">
                    <mxGeometry x="1555" y="207.5" width="60" height="30" as="geometry"/>
                </mxCell>
                <mxCell id="102" value="4" style="text;html=1;strokeColor=none;fillColor=none;align=center;verticalAlign=middle;whiteSpace=wrap;rounded=0;" vertex="1" parent="1">
                    <mxGeometry x="1585" y="207.5" width="60" height="30" as="geometry"/>
                </mxCell>
                <mxCell id="103" value="" style="endArrow=none;dashed=1;html=1;dashPattern=1 3;strokeWidth=2;exitX=0.25;exitY=1;exitDx=0;exitDy=0;" edge="1" parent="1" source="92">
                    <mxGeometry width="50" height="50" relative="1" as="geometry">
                        <mxPoint x="1380" y="160" as="sourcePoint"/>
                        <mxPoint x="1480" y="10" as="targetPoint"/>
                    </mxGeometry>
                </mxCell>
                <mxCell id="104" value="" style="endArrow=none;dashed=1;html=1;dashPattern=1 3;strokeWidth=2;" edge="1" parent="1">
                    <mxGeometry width="50" height="50" relative="1" as="geometry">
                        <mxPoint x="1630" y="70" as="sourcePoint"/>
                        <mxPoint x="1630" y="10" as="targetPoint"/>
                    </mxGeometry>
                </mxCell>
                <mxCell id="105" value="" style="endArrow=classic;html=1;" edge="1" parent="1">
                    <mxGeometry width="50" height="50" relative="1" as="geometry">
                        <mxPoint x="1530" y="5" as="sourcePoint"/>
                        <mxPoint x="1480" y="10" as="targetPoint"/>
                    </mxGeometry>
                </mxCell>
                <mxCell id="106" value="" style="endArrow=classic;html=1;" edge="1" parent="1">
                    <mxGeometry width="50" height="50" relative="1" as="geometry">
                        <mxPoint x="1570" y="5" as="sourcePoint"/>
                        <mxPoint x="1630" y="10" as="targetPoint"/>
                    </mxGeometry>
                </mxCell>
                <mxCell id="107" value="N = 5" style="text;html=1;strokeColor=none;fillColor=none;align=center;verticalAlign=middle;whiteSpace=wrap;rounded=0;" vertex="1" parent="1">
                    <mxGeometry x="1520" y="-10" width="60" height="30" as="geometry"/>
                </mxCell>
                <mxCell id="111" value="" style="endArrow=classic;html=1;" edge="1" parent="1" target="97">
                    <mxGeometry width="50" height="50" relative="1" as="geometry">
                        <mxPoint x="1660" y="55" as="sourcePoint"/>
                        <mxPoint x="1430" y="110" as="targetPoint"/>
                    </mxGeometry>
                </mxCell>
                <mxCell id="112" value="4 = N - 1" style="text;html=1;strokeColor=none;fillColor=none;align=center;verticalAlign=middle;whiteSpace=wrap;rounded=0;" vertex="1" parent="1">
                    <mxGeometry x="1637.5" y="40" width="105" height="30" as="geometry"/>
                </mxCell>
                <mxCell id="113" value="0 = N - 1" style="text;html=1;strokeColor=none;fillColor=none;align=center;verticalAlign=middle;whiteSpace=wrap;rounded=0;" vertex="1" parent="1">
                    <mxGeometry x="1430" y="230" width="60" height="30" as="geometry"/>
                </mxCell>
                <mxCell id="115" value="" style="endArrow=classic;html=1;exitX=0.614;exitY=1.089;exitDx=0;exitDy=0;exitPerimeter=0;entryX=0;entryY=1;entryDx=0;entryDy=0;" edge="1" parent="1" source="112" target="99">
                    <mxGeometry width="50" height="50" relative="1" as="geometry">
                        <mxPoint x="1380" y="160" as="sourcePoint"/>
                        <mxPoint x="1430" y="110" as="targetPoint"/>
                        <Array as="points">
                            <mxPoint x="1702" y="160"/>
                            <mxPoint x="1702" y="270"/>
                            <mxPoint x="1495" y="270"/>
                        </Array>
                    </mxGeometry>
                </mxCell>
            </root>
        </mxGraphModel>
    </diagram>
</mxfile>